<?xml version="1.0" standalone="no"?>
<!DOCTYPE svg PUBLIC "-//W3C//DTD SVG 20010904//EN"
 "http://www.w3.org/TR/2001/REC-SVG-20010904/DTD/svg10.dtd">
<svg version="1.0" xmlns="http://www.w3.org/2000/svg"
 width="2048.000000pt" height="2048.000000pt" viewBox="0 0 2048.000000 2048.000000"
 preserveAspectRatio="xMidYMid meet">

<g transform="translate(0.000000,2048.000000) scale(0.100000,-0.100000)"
fill="#000000" stroke="none">
<path d="M1375 20464 c-392 -53 -736 -233 -986 -516 -217 -247 -340 -532 -379
-883 -8 -73 -10 -2497 -8 -8880 l4 -8780 21 -105 c70 -352 198 -603 423 -829
229 -231 510 -380 847 -448 84 -17 493 -18 8883 -21 8060 -2 8806 -1 8925 14
359 44 651 188 911 448 234 234 354 459 436 812 l23 99 3 8790 c2 5814 -1
8824 -7 8892 -67 673 -519 1205 -1164 1369 -230 58 461 54 -9076 53 -7309 -1
-8773 -3 -8856 -15z m10030 -4243 c16 -9 40 -35 52 -57 56 -97 0 -221 -107
-239 -52 -9 -125 25 -157 74 -27 40 -31 117 -9 159 42 82 140 109 221 63z
m-635 -661 l0 -661 25 -24 c20 -21 34 -25 80 -25 l55 0 0 -105 0 -105 -27 -12
c-16 -6 -73 -12 -128 -12 -85 -1 -106 2 -142 21 -51 27 -96 82 -112 132 -8 27
-11 244 -11 745 l0 706 130 0 130 0 0 -660z m-2990 300 l0 -320 395 0 395 0 0
320 0 320 134 0 133 0 6 -147 c4 -82 6 -429 4 -773 l-2 -625 -137 -3 -138 -3
0 331 0 330 -395 0 -395 0 0 -330 0 -330 -135 0 -135 0 0 775 0 775 135 0 135
0 0 -320z m2045 -85 c182 -39 311 -159 378 -355 24 -68 31 -108 35 -197 l5
-113 -428 0 c-337 0 -426 -3 -423 -12 3 -7 13 -36 22 -65 23 -70 91 -144 158
-173 132 -58 312 -31 431 63 l39 30 31 -34 c18 -19 52 -51 77 -71 l45 -37 -54
-50 c-109 -101 -247 -151 -413 -151 -164 0 -291 44 -406 139 -75 63 -128 143
-165 251 -25 73 -30 100 -30 190 -1 184 50 317 168 436 136 138 327 192 530
149z m1631 -167 c-3 -84 -5 -339 -6 -565 l0 -413 -125 0 -125 0 0 565 0 565
131 0 131 0 -6 -152z m603 99 c69 -107 196 -286 203 -287 4 0 60 76 125 170
l118 170 148 0 149 0 -44 -62 c-25 -35 -111 -157 -193 -272 -106 -149 -146
-212 -139 -222 5 -7 95 -133 199 -280 105 -147 194 -273 198 -281 7 -11 -20
-13 -142 -13 l-150 0 -132 195 c-72 108 -135 195 -140 193 -7 -2 -176 -241
-259 -366 -15 -22 -19 -23 -163 -20 l-148 3 72 100 c164 227 339 476 339 482
0 3 -35 54 -77 112 -85 117 -284 399 -297 419 -6 9 26 12 146 12 l153 0 34
-53z m-3365 -2118 c-116 -192 -185 -355 -239 -564 -47 -183 -59 -296 -52 -493
11 -338 98 -615 286 -912 257 -404 522 -662 1288 -1254 84 -65 155 -122 158
-126 3 -5 -7 -17 -22 -27 -15 -10 -122 -82 -237 -161 l-209 -143 -61 48 c-140
108 -410 347 -542 478 -511 509 -776 997 -844 1555 -15 127 -12 401 6 542 42
327 162 646 350 928 67 102 158 220 170 220 2 0 -21 -41 -52 -91z m3509 -439
c315 -412 454 -906 392 -1387 -64 -493 -279 -899 -711 -1343 -296 -304 -643
-583 -1239 -997 -440 -305 -587 -409 -725 -514 -690 -522 -1082 -982 -1238
-1456 -61 -183 -76 -279 -76 -488 0 -130 5 -208 18 -280 34 -187 96 -369 166
-489 22 -38 39 -71 37 -73 -5 -4 -145 150 -212 232 -119 147 -246 373 -318
566 -20 53 -49 154 -64 225 -25 118 -27 148 -27 344 0 185 3 229 23 320 110
512 425 964 1016 1458 117 98 422 328 615 464 74 52 252 178 395 278 762 537
1147 864 1431 1219 242 301 411 640 474 949 41 206 48 437 19 637 -24 159 -93
385 -153 500 -17 33 -32 65 -34 70 -8 22 142 -145 211 -235z m-1850 -410 c362
-17 678 -47 711 -68 17 -10 -33 -21 -171 -36 -492 -55 -1403 -59 -2088 -11
-110 8 -208 15 -217 15 -13 0 -18 8 -18 29 0 28 0 28 78 34 518 43 1246 58
1705 37z m617 -920 c340 -9 872 -31 879 -36 2 -2 -8 -23 -22 -47 l-26 -44
-178 -6 c-597 -21 -1282 -28 -1728 -18 -426 10 -1054 36 -1060 43 -23 33 -35
55 -35 63 0 35 1436 65 2170 45z m-162 -945 c112 -7 205 -15 208 -17 2 -3 -27
-30 -65 -60 l-69 -55 -258 -6 c-143 -4 -394 -2 -559 4 l-299 11 -69 57 -68 56
108 8 c371 26 677 27 1071 2z m446 -1524 c285 -253 550 -566 696 -820 206
-360 293 -680 293 -1071 1 -486 -145 -918 -439 -1300 -83 -109 -137 -165 -87
-90 44 66 135 234 171 315 63 145 114 323 138 489 22 153 15 440 -15 579 -89
407 -297 747 -697 1138 -134 131 -319 290 -598 514 l-37 30 206 145 c114 80
211 151 217 157 20 24 41 12 152 -86z m-510 -506 c32 -24 73 -54 93 -66 26
-16 31 -24 21 -30 -15 -10 -671 -12 -706 -3 -20 6 -10 15 70 68 51 33 100 64
108 67 8 3 92 7 186 8 l170 1 58 -45z m441 -815 c416 -19 402 -18 432 -56 14
-19 23 -37 20 -41 -11 -10 -398 -31 -802 -44 -238 -7 -541 -9 -810 -4 -400 6
-869 25 -879 36 -2 2 11 25 30 51 l35 46 92 7 c336 23 1418 26 1882 5z m-575
-920 c182 -13 501 -47 508 -55 16 -16 -65 -31 -268 -50 -503 -47 -1243 -47
-1870 0 -107 8 -199 15 -203 15 -5 0 -7 12 -5 28 3 25 7 27 63 34 84 9 378 28
580 38 222 11 997 4 1195 -10z m4740 -2096 c56 -16 169 -73 188 -96 8 -10 2
-27 -21 -65 -18 -29 -35 -53 -40 -53 -4 0 -25 11 -46 25 -61 41 -140 67 -223
72 -65 5 -83 3 -122 -17 -52 -25 -76 -61 -76 -115 0 -48 22 -89 63 -114 18
-11 93 -36 167 -56 163 -43 214 -65 264 -113 55 -53 76 -103 76 -188 0 -90
-32 -159 -97 -209 -71 -54 -130 -70 -263 -70 -135 0 -212 22 -307 85 -106 71
-102 62 -52 123 l43 53 61 -46 c77 -59 156 -84 260 -85 62 0 89 5 120 21 82
42 110 133 60 192 -33 40 -87 64 -230 102 -125 33 -203 66 -244 103 -42 39
-71 115 -71 187 0 218 222 337 490 264z m-10014 -5 c130 -24 266 -112 332
-216 94 -149 98 -373 9 -526 -36 -60 -135 -150 -201 -181 -100 -47 -162 -56
-408 -56 l-228 0 0 495 0 495 218 0 c120 0 245 -5 278 -11z m1632 -56 l-3 -68
-294 0 -293 0 1 -145 0 -145 266 -3 265 -2 0 -65 0 -65 -265 0 -265 0 0 -150
0 -150 300 0 300 0 0 -65 0 -65 -375 0 -375 0 0 495 0 495 370 0 371 0 -3 -67z
m632 -363 l0 -430 269 0 268 0 5 -37 c3 -21 3 -53 0 -71 l-5 -34 -246 6 c-135
3 -288 5 -338 6 l-93 0 0 495 0 495 70 0 70 0 0 -430z m1530 360 l0 -70 -167
0 -168 0 3 -425 2 -425 -75 0 -75 0 0 425 0 425 -127 0 c-71 0 -145 3 -165 6
l-38 7 0 63 0 64 405 0 405 0 0 -70z m825 8 c15 -35 82 -180 148 -323 177
-384 267 -587 267 -602 0 -10 -19 -13 -74 -13 l-74 0 -50 118 -51 117 -267 0
-267 0 -47 -115 -48 -115 -76 -3 c-51 -2 -76 1 -76 8 0 11 57 139 260 585 43
94 101 223 131 288 l53 117 71 0 72 0 28 -62z m843 -15 c65 -224 217 -692 223
-685 6 7 212 598 245 705 l18 58 68 -3 67 -3 126 -370 c152 -449 135 -406 147
-375 20 51 228 723 228 736 0 11 19 14 80 14 44 0 80 -3 80 -7 -1 -5 -74 -228
-163 -498 l-163 -490 -72 0 -73 0 -127 377 c-70 208 -129 378 -132 378 -4 0
-69 -185 -248 -713 l-16 -48 -70 3 -71 3 -162 485 c-90 267 -163 491 -163 498
0 8 22 12 78 12 l78 0 22 -77z m2254 -148 c55 -121 128 -283 163 -360 34 -77
90 -199 123 -272 68 -149 69 -143 -32 -143 l-63 0 -50 118 -50 117 -269 2
-269 3 -50 -116 -50 -116 -70 0 c-38 0 -73 1 -77 1 -8 1 -9 -1 270 611 44 96
94 209 112 250 62 142 50 131 136 128 l75 -3 101 -220z m832 -10 c81 -129 151
-235 156 -235 5 0 23 24 41 53 17 28 86 134 152 235 l121 182 78 0 c43 0 78
-3 78 -6 0 -3 -90 -142 -200 -307 l-200 -302 0 -186 c0 -102 -2 -188 -4 -190
-2 -2 -36 -3 -74 -1 l-70 4 -1 186 -2 186 -86 135 c-48 75 -138 214 -200 309
l-112 172 88 0 88 0 147 -235z"/>
<path d="M9609 15557 c-57 -16 -131 -69 -163 -117 -22 -34 -56 -118 -56 -140
0 -6 114 -10 299 -10 l300 0 -6 38 c-15 95 -77 177 -161 215 -57 24 -152 31
-213 14z"/>
<path d="M4987 4881 c-2 -3 -1 -167 1 -363 l4 -358 123 0 c191 0 288 27 374
106 158 142 132 445 -49 559 -63 40 -134 54 -298 58 -83 3 -154 2 -155 -2z"/>
<path d="M9835 4815 c-9 -22 -50 -114 -90 -206 -41 -91 -77 -177 -80 -192 l-7
-27 178 1 c99 1 188 4 200 7 20 7 17 17 -70 207 -50 110 -96 211 -103 225
l-11 25 -17 -40z"/>
<path d="M12854 4814 c-9 -21 -39 -88 -66 -149 -48 -105 -118 -266 -118 -272
0 -2 90 -3 200 -3 157 0 200 3 200 13 0 11 -186 436 -196 446 -2 2 -11 -13
-20 -35z"/>
</g>
</svg>
